<?xml version="1.0" standalone="no"?>
<!DOCTYPE svg PUBLIC "-//W3C//DTD SVG 20010904//EN"
 "http://www.w3.org/TR/2001/REC-SVG-20010904/DTD/svg10.dtd">
<svg version="1.0" xmlns="http://www.w3.org/2000/svg"
 width="789.000000pt" height="789.000000pt" viewBox="0 0 789.000000 789.000000"
 preserveAspectRatio="xMidYMid meet">
<metadata>
Created by potrace 1.14, written by Peter Selinger 2001-2017
</metadata>
<g transform="translate(0.000000,789.000000) scale(0.100000,-0.100000)"
fill="#000000" stroke="none">
<path d="M2097 6141 c-2 -3 -3 -339 -3 -746 l1 -740 127 -2 c71 -1 130 2 132
5 2 4 7 60 11 126 4 65 8 126 10 135 1 9 6 36 10 61 10 70 54 208 89 286 51
110 95 174 186 270 169 178 452 287 778 299 90 3 102 2 103 -13 4 -95 0 -3233
-5 -3281 -32 -329 -212 -471 -603 -475 -111 -1 -133 -4 -134 -16 -5 -80 -2
-274 3 -283 10 -16 2278 -17 2279 -2 1 13 1 266 0 285 -1 12 -24 15 -134 17
-72 1 -168 8 -211 17 -238 47 -362 189 -392 451 -5 44 -9 3021 -5 3267 l1 38
98 -4 c461 -19 779 -198 951 -536 29 -55 77 -181 85 -223 3 -12 7 -33 11 -47
21 -97 33 -207 34 -326 l1 -51 133 1 132 1 0 745 0 745 -1843 1 c-1013 1
-1844 -1 -1845 -5z"/>
<path d="M2099 4126 c-6 -5 -4 -863 2 -871 5 -6 158 -9 431 -8 232 1 428 2
433 2 7 1 10 153 10 439 l0 439 -437 0 c-241 0 -439 0 -439 -1z"/>
<path d="M4906 4121 c-1 -3 -2 -199 -2 -434 1 -311 4 -430 13 -435 8 -5 701
-8 843 -3 l25 1 0 439 0 438 -438 0 c-241 0 -439 -3 -441 -6z"/>
</g>
</svg>
